# File created by Blade
# Date/Time:  Mon Sep 22 17:38:34 2014
# Frame Rate: 120.000 fps
#------------------------------------------------------
:FULLY-SPECIFIED
:DEGREES
1404
root 1.583867 37.253886 5.988839 -12.637936 -10.723569 5.464223
RightUpLeg 18.692721 -1.570007 -0.561117
RightLeg -3.724437 -0.000000 0.000000
RightFoot -11.485398 -16.026575 8.216572
RightToeBase 9.811704 -0.000000 -0.000000
LeftUpLeg -30.567703 7.787429 -1.020314
LeftLeg 61.698082 -0.000000 -0.000000
LeftFoot 17.239700 32.385860 -20.789213
LeftToeBase -1.542054 -0.000000 0.000000
Spine 23.348090 -7.195817 -2.747254
RightShoulder 2.239521 -28.001536 -11.152482
RightArm 22.443124 -21.272482 60.682807
RightForeArm 6.971117 -0.000000 44.635849
RightHand 0.050434 -0.000000 -3.039139
RightHandThumb1 -24.326973 -0.000000 -32.862282
LeftShoulder -18.055903 27.767680 3.610205
LeftArm 61.595570 -38.832918 -62.673063
LeftForeArm 42.095961 0.000000 46.437806
LeftHand -18.290645 -0.000000 -18.916604
LeftHandThumb1 -26.253704 0.000000 33.147579
Head 16.221652 24.568196 -6.835388
1405
root 1.590560 37.256264 5.976900 -12.641868 -10.644963 5.501458
RightUpLeg 18.677005 -1.626742 -0.619030
RightLeg -3.721493 -0.000000 0.000000
RightFoot -11.480272 -16.024727 8.204302
RightToeBase 9.822645 -0.000000 -0.000000
LeftUpLeg -30.596005 7.811762 -1.115823
LeftLeg 61.597435 -0.000000 -0.000000
LeftFoot 17.219133 32.345072 -20.806998
LeftToeBase -1.376939 -0.000000 0.000000
Spine 23.376563 -7.161890 -2.723293
RightShoulder 2.257754 -28.005327 -11.184549
RightArm 22.386528 -21.256875 60.726394
RightForeArm 6.991762 -0.000000 44.571787
RightHand 0.008417 0.000000 -3.079255
RightHandThumb1 -24.326973 -0.000000 -32.862282
LeftShoulder -18.000360 27.756412 3.664878
LeftArm 61.571013 -38.723038 -62.586642
LeftForeArm 41.985881 -0.000000 46.364177
LeftHand -18.235127 -0.000000 -18.722751
LeftHandThumb1 -26.253704 0.000000 33.147579
Head 16.304768 24.500285 -6.808370
1406
root 1.598546 37.259940 5.965492 -12.643920 -10.555578 5.545159
RightUpLeg 18.653886 -1.682990 -0.682456
RightLeg -3.706498 -0.000000 0.000000
RightFoot -11.497397 -16.035013 8.224379
RightToeBase 9.872710 -0.000000 -0.000000
LeftUpLeg -30.621719 7.833012 -1.228566
LeftLeg 61.485821 -0.000000 -0.000000
LeftFoot 17.371566 32.310544 -20.641759
LeftToeBase -1.854896 -0.000000 0.000000
Spine 23.398802 -7.152972 -2.709183
RightShoulder 2.273707 -28.025129 -11.208744
RightArm 22.361811 -21.230613 60.741116
RightForeArm 6.954863 -0.000000 44.496142
RightHand -0.003583 -0.000000 -3.033151
RightHandThumb1 -24.326973 -0.000000 -32.862282
LeftShoulder -17.932760 27.732556 3.694265
LeftArm 61.518154 -38.655877 -62.481492
LeftForeArm 41.820715 0.000000 46.324051
LeftHand -18.580595 -0.000000 -18.457143
LeftHandThumb1 -26.253704 0.000000 33.147579
Head 16.398379 24.465604 -6.769633
1407
root 1.606212 37.262427 5.953421 -12.629724 -10.487163 5.588928
RightUpLeg 18.615244 -1.698536 -0.734233
RightLeg -3.703112 -0.000000 0.000000
RightFoot -11.485428 -16.082670 8.174158
RightToeBase 9.475515 -0.000000 -0.000000
LeftUpLeg -30.669750 7.869362 -1.333514
LeftLeg 61.381035 -0.000000 -0.000000
LeftFoot 17.239961 32.278353 -20.870855
LeftToeBase -1.244701 -0.000000 0.000000
Spine 23.395119 -7.139912 -2.693715
RightShoulder 2.301853 -28.025048 -11.238561
RightArm 22.327908 -21.229844 60.748366
RightForeArm 6.930157 -0.000000 44.422316
RightHand -0.046051 -0.000000 -3.018920
RightHandThumb1 -24.326973 -0.000000 -32.862282
LeftShoulder -17.876034 27.762694 3.715364
LeftArm 61.455491 -38.627724 -62.449753
LeftForeArm 41.814013 -0.000000 46.405060
LeftHand -18.181622 -0.000000 -18.381284
LeftHandThumb1 -26.253704 0.000000 33.147579
Head 16.480297 24.419033 -6.771507
1408
root 1.612192 37.264812 5.942787 -12.642535 -10.415448 5.613331
RightUpLeg 18.609307 -1.724083 -0.767761
RightLeg -3.693742 -0.000000 0.000000
RightFoot -11.579510 -16.069436 8.335074
RightToeBase 10.090116 -0.000000 -0.000000
LeftUpLeg -30.683653 7.894731 -1.417669
LeftLeg 61.277603 -0.000000 -0.000000
LeftFoot 17.309081 32.158486 -20.846068
LeftToeBase -1.382373 -0.000000 0.000000
Spine 23.435558 -7.147590 -2.674053
RightShoulder 2.342628 -28.028062 -11.275641
RightArm 22.325483 -21.222710 60.730735
RightForeArm 6.936141 -0.000000 44.341185
RightHand -0.040026 -0.000000 -3.005052
RightHandThumb1 -24.326973 -0.000000 -32.862282
LeftShoulder -17.831835 27.789556 3.719119
LeftArm 61.436347 -38.603945 -62.371167
LeftForeArm 41.938979 -0.000000 46.400953
LeftHand -19.170843 -0.000000 -18.532099
LeftHandThumb1 -26.253704 0.000000 33.147579
Head 16.512987 24.377228 -6.792406
1409
root 1.617436 37.266370 5.932614 -12.669429 -10.353779 5.640670
RightUpLeg 18.610174 -1.728338 -0.798382
RightLeg -3.669921 -0.000000 0.000000
RightFoot -11.528438 -16.146856 8.237964
RightToeBase 9.967738 -0.000000 -0.000000
LeftUpLeg -30.683354 7.926323 -1.490547
LeftLeg 61.187249 -0.000000 -0.000000
LeftFoot 17.263828 32.051398 -21.021052
LeftToeBase -1.453350 -0.000000 0.000000
Spine 23.495350 -7.135350 -2.657582
RightShoulder 2.363462 -28.018598 -11.297284
RightArm 22.329908 -21.239096 60.693537
RightForeArm 6.994630 0.000000 44.275289
RightHand -0.075629 0.000000 -3.033311
RightHandThumb1 -24.326973 -0.000000 -32.862282
LeftShoulder -17.781946 27.818852 3.749110
LeftArm 61.399472 -38.586320 -62.355511
LeftForeArm 41.774436 -0.000000 46.417774
LeftHand -18.929637 -0.000000 -18.136346
LeftHandThumb1 -26.253704 0.000000 33.147579
Head 16.538497 24.350326 -6.769963
